<?xml version="1.0" encoding="utf-8"?>
<!-- Generator: Adobe Illustrator 16.0.0, SVG Export Plug-In . SVG Version: 6.00 Build 0)  -->
<!DOCTYPE svg PUBLIC "-//W3C//DTD SVG 1.1//EN" "http://www.w3.org/Graphics/SVG/1.1/DTD/svg11.dtd">
<svg version="1.1" id="Layer_1" xmlns="http://www.w3.org/2000/svg" xmlns:xlink="http://www.w3.org/1999/xlink" x="0px" y="0px"
	 width="1024px" height="241.874px" viewBox="0 0 1024 241.874" enable-background="new 0 0 1024 241.874" xml:space="preserve">
<g>
	<g>
		<path fill-rule="evenodd" clip-rule="evenodd" fill="#FFFFFF" d="M143.404,240.478c12.239,0,25.246-3.545,35.652-8.795
			c5.348-2.699,10.468-5.941,15.082-9.689c8.87-7.207,16.331-17.961,21.42-28.125c4.098-8.188,7.485-20.438,7.485-32.566
			c0-11.654-2.548-21.871-5.817-31.686c-4.406-13.226-8.51-22.396-14.708-34.606L187.26,68.598
			c-4.542-7.584-9.91-15.537-14.825-22.91c-1.047-1.57-1.981-3.109-3.066-4.574l-15.612-22.355
			c-1.729-2.307-11.912-16.295-12.752-17.361c-0.43,0.719-18.888,26.537-21.079,29.703L94.652,69.027
			c-1.67,2.727-3.178,5.162-4.828,7.906l-11.556,20.16c-2.377,4.684-4.041,7.93-6.177,12.807
			c-2.573,5.879-4.843,12.119-6.969,18.499c-7.289,21.873-9.056,39.713,0.523,62.969c1.242,3.014,2.576,5.76,4.057,8.678
			l3.549,5.941c4.367,6.621,7.967,9.904,13.61,14.865c4.681,4.117,13.956,9.393,19.862,11.854l9.157,3.346
			c1.709,0.527,3.284,0.973,5.065,1.418c3.2,0.801,7.113,1.699,10.649,2.082C135.306,239.956,139.273,240.478,143.404,240.478z"/>
		<path fill="none" stroke="#FFFFFF" stroke-width="2.9034" stroke-miterlimit="2.6131" d="M143.404,240.478
			c12.239,0,25.246-3.545,35.652-8.795c5.348-2.699,10.468-5.941,15.082-9.689c8.87-7.207,16.331-17.961,21.42-28.125
			c4.098-8.188,7.485-20.438,7.485-32.566c0-11.654-2.548-21.871-5.817-31.686c-4.406-13.226-8.51-22.396-14.708-34.606
			L187.26,68.598c-4.542-7.584-9.91-15.537-14.825-22.91c-1.047-1.57-1.981-3.109-3.066-4.574l-15.612-22.355
			c-1.729-2.307-11.912-16.295-12.752-17.361c-0.43,0.719-18.888,26.537-21.079,29.703L94.652,69.027
			c-1.67,2.727-3.178,5.162-4.828,7.906l-11.556,20.16c-2.377,4.684-4.041,7.93-6.177,12.807
			c-2.573,5.879-4.843,12.119-6.969,18.499c-7.289,21.873-9.056,39.713,0.523,62.969c1.242,3.014,2.576,5.76,4.057,8.678
			l3.549,5.941c4.367,6.621,7.967,9.904,13.61,14.865c4.681,4.117,13.956,9.393,19.862,11.854l9.157,3.346
			c1.709,0.527,3.284,0.973,5.065,1.418c3.2,0.801,7.113,1.699,10.649,2.082C135.306,239.956,139.273,240.478,143.404,240.478z"/>
		<path fill-rule="evenodd" clip-rule="evenodd" fill="#388AC9" d="M199.808,161.302c-0.045-12.859-4.614-25.135-8.797-35.803
			c-8.587-21.894-27.035-51.446-40.603-70.987l-6.807-9.857c-0.446-0.67-0.761-1.045-1.155-1.619
			c-0.247-0.359-0.326-0.533-0.54-0.842l-0.91-0.893c-0.421,1.033-4.252,6.262-5.155,7.564
			c-14.09,20.375-22.04,32.938-34.563,54.572c-6.03,10.42-11.428,22.915-15.215,35.718c-4.966,16.791-5.525,26.396,0.827,42.773
			c2.689,6.936,5.595,11.352,9.403,16.07l3.125,3.115c1.17,0.943,2.254,1.908,3.587,2.898c2.186,1.625,4.982,3.465,7.788,4.939
			c18.799,9.887,41.167,11.674,60.614,0.496c6.057-3.48,10.067-6.844,14.015-11.443c0.466-0.543,0.779-1.016,1.342-1.672
			C194.545,187.237,199.852,173.669,199.808,161.302z"/>
		<path fill="none" stroke="#000000" stroke-width="2.9034" stroke-miterlimit="2.6131" d="M199.808,161.302
			c-0.045-12.859-4.614-25.135-8.797-35.803c-8.587-21.894-27.035-51.446-40.603-70.987l-6.807-9.857
			c-0.446-0.67-0.761-1.045-1.155-1.619c-0.247-0.359-0.326-0.533-0.54-0.842l-0.91-0.893c-0.421,1.033-4.252,6.262-5.155,7.564
			c-14.09,20.375-22.04,32.938-34.563,54.572c-6.03,10.42-11.428,22.915-15.215,35.718c-4.966,16.791-5.525,26.396,0.827,42.773
			c2.689,6.936,5.595,11.352,9.403,16.07l3.125,3.115c1.17,0.943,2.254,1.908,3.587,2.898c2.186,1.625,4.982,3.465,7.788,4.939
			c18.799,9.887,41.167,11.674,60.614,0.496c6.057-3.48,10.067-6.844,14.015-11.443c0.466-0.543,0.779-1.016,1.342-1.672
			C194.545,187.237,199.852,173.669,199.808,161.302z"/>
		<path fill-rule="evenodd" clip-rule="evenodd" fill="#00ADEE" d="M55.033,19.113c2.591-2.83,4.039-4.027,5.245-4.871
			c1.205-0.844,2.17-1.336,3.255-1.336c1.086,0,2.292,0.492,3.498,1.426c1.206,0.934,2.411,2.314,5.546,5.836
			c3.135,3.523,8.199,9.189,11.455,12.809c3.256,3.617,4.703,5.184,5.607,6.299c0.904,1.115,1.267,1.779,1.235,2.504
			c-0.029,0.723-0.452,1.506-1.024,2.35c-0.572,0.846-1.296,1.75-2.261,3.105c-0.966,1.355-2.17,3.166-4.16,6.182
			c-1.989,3.012-4.763,7.232-7.264,11.092c-2.503,3.857-4.733,7.355-7.325,11.484c-2.593,4.129-5.546,8.893-8.094,13.475
			c-2.546,4.582-4.685,8.984-6.493,13.264c-1.809,4.281-3.288,8.441-4.57,12.18c-1.282,3.736-2.367,7.053-3.121,9.796
			c-0.753,2.742-1.175,4.914-1.508,8.711c-0.331,3.799-0.572,9.225-0.602,13.928c-0.029,4.701,0.151,8.682,0.271,12.539
			c0.12,3.859,0.181,7.598,0.482,11.395c0.302,3.801,0.844,7.658,1.266,10.131c0.422,2.471,0.724,3.555,0.464,4.602
			c-0.26,1.045-1.082,2.051-2.649,2.201c-1.567,0.152-3.881-0.555-6.424-1.99c-2.543-1.438-5.316-3.607-8.964-6.953
			c-3.647-3.346-8.169-7.869-12.057-12.902c-3.889-5.033-7.146-10.582-9.375-15.283c-2.231-4.703-3.437-8.561-4.291-12.359
			c-0.854-3.799-1.356-7.537-1.607-11.305s-0.251-7.567,0.332-12.118c0.583-4.551,1.748-9.857,3.204-15.041
			C6.56,95.074,8.308,90.01,9.996,85.73c1.688-4.281,3.315-7.777,5.638-11.85c2.32-4.068,5.335-8.709,8.742-13.834
			c3.406-5.125,7.204-10.732,10.701-15.676c3.497-4.943,6.691-9.225,10.158-13.596C48.701,26.404,52.44,21.941,55.033,19.113z"/>
		<path fill="none" stroke="#FFFFFF" stroke-width="2.1775" stroke-miterlimit="2.6131" d="M55.033,19.113
			c2.591-2.83,4.039-4.027,5.245-4.871c1.205-0.844,2.17-1.336,3.255-1.336c1.086,0,2.292,0.492,3.498,1.426
			c1.206,0.934,2.411,2.314,5.546,5.836c3.135,3.523,8.199,9.189,11.455,12.809c3.256,3.617,4.703,5.184,5.607,6.299
			c0.904,1.115,1.267,1.779,1.235,2.504c-0.029,0.723-0.452,1.506-1.024,2.35c-0.572,0.846-1.296,1.75-2.261,3.105
			c-0.966,1.355-2.17,3.166-4.16,6.182c-1.989,3.012-4.763,7.232-7.264,11.092c-2.503,3.857-4.733,7.355-7.325,11.484
			c-2.593,4.129-5.546,8.893-8.094,13.475c-2.546,4.582-4.685,8.984-6.493,13.264c-1.809,4.281-3.288,8.441-4.57,12.18
			c-1.282,3.736-2.367,7.053-3.121,9.796c-0.753,2.742-1.175,4.914-1.508,8.711c-0.331,3.799-0.572,9.225-0.602,13.928
			c-0.029,4.701,0.151,8.682,0.271,12.539c0.12,3.859,0.181,7.598,0.482,11.395c0.302,3.801,0.844,7.658,1.266,10.131
			c0.422,2.471,0.724,3.555,0.464,4.602c-0.26,1.045-1.082,2.051-2.649,2.201c-1.567,0.152-3.881-0.555-6.424-1.99
			c-2.543-1.438-5.316-3.607-8.964-6.953c-3.647-3.346-8.169-7.869-12.057-12.902c-3.889-5.033-7.146-10.582-9.375-15.283
			c-2.231-4.703-3.437-8.561-4.291-12.359c-0.854-3.799-1.356-7.537-1.607-11.305s-0.251-7.567,0.332-12.118
			c0.583-4.551,1.748-9.857,3.204-15.041C6.56,95.074,8.308,90.01,9.996,85.73c1.688-4.281,3.315-7.777,5.638-11.85
			c2.32-4.068,5.335-8.709,8.742-13.834c3.406-5.125,7.204-10.732,10.701-15.676c3.497-4.943,6.691-9.225,10.158-13.596
			C48.701,26.404,52.44,21.941,55.033,19.113z"/>
		<path fill-rule="evenodd" clip-rule="evenodd" fill="#0296FA" d="M229.511,19.582c-2.592-2.83-4.04-4.027-5.246-4.871
			c-1.206-0.844-2.17-1.336-3.255-1.336c-1.084,0-2.29,0.492-3.496,1.426c-1.208,0.936-2.411,2.313-5.546,5.836
			c-3.137,3.523-8.201,9.189-11.457,12.809c-3.255,3.617-4.701,5.186-5.604,6.301c-0.905,1.115-1.268,1.777-1.237,2.502
			c0.03,0.723,0.452,1.506,1.025,2.35c0.574,0.846,1.296,1.75,2.26,3.105c0.966,1.357,2.172,3.164,4.16,6.18
			c1.99,3.014,4.763,7.234,7.266,11.094c2.501,3.857,4.732,7.355,7.326,11.484c2.591,4.131,5.545,8.893,8.091,13.475
			c2.546,4.582,4.685,8.984,6.495,13.264c1.807,4.281,3.287,8.441,4.568,12.178c1.283,3.738,2.368,7.055,3.121,9.798
			c0.755,2.744,1.178,4.914,1.509,8.713c0.331,3.797,0.571,9.225,0.603,13.926c0.03,4.703-0.151,8.682-0.271,12.539
			c-0.121,3.859-0.182,7.598-0.482,11.395c-0.302,3.799-0.845,7.658-1.267,10.129c-0.423,2.473-0.722,3.557-0.462,4.604
			c0.26,1.045,1.081,2.051,2.649,2.201c1.567,0.152,3.881-0.553,6.423-1.99c2.543-1.438,5.318-3.607,8.964-6.953
			c3.647-3.346,8.168-7.869,12.058-12.902c3.889-5.033,7.145-10.58,9.375-15.283c2.231-4.703,3.437-8.561,4.291-12.359
			c0.853-3.797,1.356-7.535,1.606-11.305c0.25-3.768,0.25-7.565-0.331-12.118c-0.584-4.551-1.747-9.857-3.206-15.041
			c-1.457-5.186-3.205-10.25-4.892-14.529c-1.688-4.281-3.318-7.779-5.637-11.848c-2.322-4.07-5.337-8.713-8.744-13.836
			c-3.405-5.125-7.204-10.732-10.702-15.678c-3.497-4.943-6.69-9.223-10.158-13.594C235.841,26.873,232.104,22.412,229.511,19.582z"
			/>
		<path fill="none" stroke="#0296FA" stroke-width="0.363" stroke-miterlimit="2.6131" d="M229.511,19.582
			c-2.592-2.83-4.04-4.027-5.246-4.871c-1.206-0.844-2.17-1.336-3.255-1.336c-1.084,0-2.29,0.492-3.496,1.426
			c-1.208,0.936-2.411,2.313-5.546,5.836c-3.137,3.523-8.201,9.189-11.457,12.809c-3.255,3.617-4.701,5.186-5.604,6.301
			c-0.905,1.115-1.268,1.777-1.237,2.502c0.03,0.723,0.452,1.506,1.025,2.35c0.574,0.846,1.296,1.75,2.26,3.105
			c0.966,1.357,2.172,3.164,4.16,6.18c1.99,3.014,4.763,7.234,7.266,11.094c2.501,3.857,4.732,7.355,7.326,11.484
			c2.591,4.131,5.545,8.893,8.091,13.475c2.546,4.582,4.685,8.984,6.495,13.264c1.807,4.281,3.287,8.441,4.568,12.178
			c1.283,3.738,2.368,7.055,3.121,9.798c0.755,2.744,1.178,4.914,1.509,8.713c0.331,3.797,0.571,9.225,0.603,13.926
			c0.03,4.703-0.151,8.682-0.271,12.539c-0.121,3.859-0.182,7.598-0.482,11.395c-0.302,3.799-0.845,7.658-1.267,10.129
			c-0.423,2.473-0.722,3.557-0.462,4.604c0.26,1.045,1.081,2.051,2.649,2.201c1.567,0.152,3.881-0.553,6.423-1.99
			c2.543-1.438,5.318-3.607,8.964-6.953c3.647-3.346,8.168-7.869,12.058-12.902c3.889-5.033,7.145-10.58,9.375-15.283
			c2.231-4.703,3.437-8.561,4.291-12.359c0.853-3.797,1.356-7.535,1.606-11.305c0.25-3.768,0.25-7.565-0.331-12.118
			c-0.584-4.551-1.747-9.857-3.206-15.041c-1.457-5.186-3.205-10.25-4.892-14.529c-1.688-4.281-3.318-7.779-5.637-11.848
			c-2.322-4.07-5.337-8.713-8.744-13.836c-3.405-5.125-7.204-10.732-10.702-15.678c-3.497-4.943-6.69-9.223-10.158-13.594
			C235.841,26.873,232.104,22.412,229.511,19.582z"/>
		<path fill-rule="evenodd" clip-rule="evenodd" fill="#00ADEE" d="M141.187,21.189c-5.305,7.477-10.611,14.953-16.399,23.332
			C119,52.902,112.73,62.188,106.643,71.83c-6.087,9.643-11.992,19.645-16.211,27.303c-4.22,7.656-6.757,12.967-9.231,19.119
			c-2.473,6.151-4.885,13.147-6.694,19.116c-1.808,5.969-3.014,10.91-3.557,16.096c-0.542,5.186-0.422,10.611,0.603,16.584
			c1.024,5.975,2.954,12.496,5.607,18.645c2.653,6.152,6.029,11.93,10.43,16.867c4.401,4.939,9.827,9.037,15.555,12.354
			s11.756,5.848,18.508,7.717s14.229,3.074,21.223,3.135s13.503-1.023,19.955-3.074c6.452-2.049,12.842-5.064,18.087-8.441
			c5.245-3.375,9.344-7.113,13.384-11.871c4.04-4.756,8.018-10.533,10.972-16.924s4.882-13.395,5.668-19.852
			c0.783-6.457,0.42-12.365-0.361-17.73c-0.786-5.367-1.991-10.189-3.98-16.277c-1.988-6.09-4.764-13.446-7.416-19.655
			c-2.653-6.209-5.185-11.273-9.103-18.389c-3.919-7.113-9.224-16.279-15.073-25.621c-5.848-9.346-12.237-18.871-17.967-27.191
			C151.315,35.416,146.251,28.305,141.187,21.189z"/>
		<path fill="none" stroke="#0296FA" stroke-width="0.363" stroke-miterlimit="2.6131" d="M141.187,21.189
			c-5.305,7.477-10.611,14.953-16.399,23.332C119,52.902,112.73,62.188,106.643,71.83c-6.087,9.643-11.992,19.645-16.211,27.303
			c-4.22,7.656-6.757,12.967-9.231,19.119c-2.473,6.151-4.885,13.147-6.694,19.116c-1.808,5.969-3.014,10.91-3.557,16.096
			c-0.542,5.186-0.422,10.611,0.603,16.584c1.024,5.975,2.954,12.496,5.607,18.645c2.653,6.152,6.029,11.93,10.43,16.867
			c4.401,4.939,9.827,9.037,15.555,12.354s11.756,5.848,18.508,7.717s14.229,3.074,21.223,3.135s13.503-1.023,19.955-3.074
			c6.452-2.049,12.842-5.064,18.087-8.441c5.245-3.375,9.344-7.113,13.384-11.871c4.04-4.756,8.018-10.533,10.972-16.924
			s4.882-13.395,5.668-19.852c0.783-6.457,0.42-12.365-0.361-17.73c-0.786-5.367-1.991-10.189-3.98-16.277
			c-1.988-6.09-4.764-13.446-7.416-19.655c-2.653-6.209-5.185-11.273-9.103-18.389c-3.919-7.113-9.224-16.279-15.073-25.621
			c-5.848-9.346-12.237-18.871-17.967-27.191C151.315,35.416,146.251,28.305,141.187,21.189z"/>
		<ellipse fill-rule="evenodd" clip-rule="evenodd" fill="#FFFFFF" cx="153.17" cy="185.912" rx="30.567" ry="30.114"/>
		
			<ellipse fill="none" stroke="#FFFFFF" stroke-width="2.1788" stroke-miterlimit="2.6131" cx="153.17" cy="185.912" rx="30.567" ry="30.114"/>
		<ellipse fill-rule="evenodd" clip-rule="evenodd" fill="#FFFFFF" cx="188.987" cy="153.624" rx="11.916" ry="11.74"/>
		
			<ellipse fill="none" stroke="#FFFFFF" stroke-width="1.4527" stroke-miterlimit="2.6131" cx="188.987" cy="153.624" rx="11.916" ry="11.74"/>
		<path fill-rule="evenodd" clip-rule="evenodd" fill="#00ADEE" d="M229.511,19.582c-2.592-2.83-4.04-4.027-5.246-4.871
			c-1.206-0.844-2.17-1.336-3.255-1.336c-1.084,0-2.29,0.492-3.496,1.426c-1.208,0.936-2.411,2.313-5.546,5.836
			c-3.137,3.523-8.201,9.189-11.457,12.809c-3.255,3.617-4.701,5.186-5.604,6.301c-0.905,1.115-1.268,1.777-1.237,2.502
			c0.03,0.723,0.452,1.506,1.025,2.35c0.574,0.846,1.296,1.75,2.26,3.105c0.966,1.357,2.172,3.164,4.16,6.18
			c1.99,3.014,4.763,7.234,7.266,11.094c2.501,3.857,4.732,7.355,7.326,11.484c2.591,4.131,5.545,8.893,8.091,13.475
			c2.546,4.582,4.685,8.984,6.495,13.264c1.807,4.281,3.287,8.441,4.568,12.178c1.283,3.738,2.368,7.055,3.121,9.798
			c0.755,2.744,1.178,4.914,1.509,8.713c0.331,3.797,0.571,9.225,0.603,13.926c0.03,4.703-0.151,8.682-0.271,12.539
			c-0.121,3.859-0.182,7.598-0.482,11.395c-0.302,3.799-0.845,7.658-1.267,10.129c-0.423,2.473-0.722,3.557-0.462,4.604
			c0.26,1.045,1.081,2.051,2.649,2.201c1.567,0.152,3.881-0.553,6.423-1.99c2.543-1.438,5.318-3.607,8.964-6.953
			c3.647-3.346,8.168-7.869,12.058-12.902c3.889-5.033,7.145-10.58,9.375-15.283c2.231-4.703,3.437-8.561,4.291-12.359
			c0.853-3.797,1.356-7.535,1.606-11.305c0.25-3.768,0.25-7.565-0.331-12.118c-0.584-4.551-1.747-9.857-3.206-15.041
			c-1.457-5.186-3.205-10.25-4.892-14.529c-1.688-4.281-3.318-7.779-5.637-11.848c-2.322-4.07-5.337-8.713-8.744-13.836
			c-3.405-5.125-7.204-10.732-10.702-15.678c-3.497-4.943-6.69-9.223-10.158-13.594C235.841,26.873,232.104,22.412,229.511,19.582z"
			/>
		<path fill="none" stroke="#FFFFFF" stroke-width="2.1775" stroke-miterlimit="2.6131" d="M229.511,19.582
			c-2.592-2.83-4.04-4.027-5.246-4.871c-1.206-0.844-2.17-1.336-3.255-1.336c-1.084,0-2.29,0.492-3.496,1.426
			c-1.208,0.936-2.411,2.313-5.546,5.836c-3.137,3.523-8.201,9.189-11.457,12.809c-3.255,3.617-4.701,5.186-5.604,6.301
			c-0.905,1.115-1.268,1.777-1.237,2.502c0.03,0.723,0.452,1.506,1.025,2.35c0.574,0.846,1.296,1.75,2.26,3.105
			c0.966,1.357,2.172,3.164,4.16,6.18c1.99,3.014,4.763,7.234,7.266,11.094c2.501,3.857,4.732,7.355,7.326,11.484
			c2.591,4.131,5.545,8.893,8.091,13.475c2.546,4.582,4.685,8.984,6.495,13.264c1.807,4.281,3.287,8.441,4.568,12.178
			c1.283,3.738,2.368,7.055,3.121,9.798c0.755,2.744,1.178,4.914,1.509,8.713c0.331,3.797,0.571,9.225,0.603,13.926
			c0.03,4.703-0.151,8.682-0.271,12.539c-0.121,3.859-0.182,7.598-0.482,11.395c-0.302,3.799-0.845,7.658-1.267,10.129
			c-0.423,2.473-0.722,3.557-0.462,4.604c0.26,1.045,1.081,2.051,2.649,2.201c1.567,0.152,3.881-0.553,6.423-1.99
			c2.543-1.438,5.318-3.607,8.964-6.953c3.647-3.346,8.168-7.869,12.058-12.902c3.889-5.033,7.145-10.58,9.375-15.283
			c2.231-4.703,3.437-8.561,4.291-12.359c0.853-3.797,1.356-7.535,1.606-11.305c0.25-3.768,0.25-7.565-0.331-12.118
			c-0.584-4.551-1.747-9.857-3.206-15.041c-1.457-5.186-3.205-10.25-4.892-14.529c-1.688-4.281-3.318-7.779-5.637-11.848
			c-2.322-4.07-5.337-8.713-8.744-13.836c-3.405-5.125-7.204-10.732-10.702-15.678c-3.497-4.943-6.69-9.223-10.158-13.594
			C235.841,26.873,232.104,22.412,229.511,19.582z"/>
	</g>
	<g>
		<path fill-rule="evenodd" clip-rule="evenodd" fill="#FFFFFF" d="M408.003,75.503c4.588,0.014,11.665,0.256,15.849,0.107
			c4.184-0.148,5.475-0.686,6.188-1.723c0.714-1.035,0.849-2.568,0.888-5.084c0.04-2.518-0.013-6.014-0.094-8.625
			c-0.08-2.611-0.188-4.332-1.83-6.836c-1.641-2.5-4.817-5.783-7.265-7.908c-2.448-2.127-4.17-3.096-5.623-3.902
			c-1.453-0.807-2.638-1.453-11.732-1.777c-9.095-0.322-26.101-0.322-35.438,0c-9.338,0.324-11.006,0.971-12.917,1.963
			c-1.912,0.998-4.063,2.344-5.92,3.607c-1.856,1.266-3.417,2.449-4.627,3.902c-1.211,1.453-2.072,3.176-2.771,4.789
			c-0.7,1.613-1.239,3.121-1.561,5.166c-0.323,2.045-0.431,4.629-0.457,8.854c-0.028,4.225,0.026,10.09,0.402,13.775
			c0.376,3.688,1.077,5.195,1.885,6.701c0.807,1.508,1.722,3.014,2.959,4.494c1.237,1.48,2.799,2.932,4.736,4.25
			c1.938,1.32,4.252,2.504,11.894,3.096c7.642,0.594,20.611,0.594,33.581,0.594c0.054,3.281,0.108,6.563,0.162,9.844
			c-6.693,0.055-13.386,0.105-20.079,0.158c-0.035-1.613-0.068-3.225-0.085-4.328c-0.018-1.102-0.018-1.693-0.339-2.178
			c-0.323-0.486-0.97-0.861-2.073-1.131c-1.103-0.268-2.664-0.43-7.507-0.43c-4.843,0-12.969,0.162-17.463,0.43
			c-4.494,0.27-5.355,0.645-6.162,1.158c-0.807,0.512-1.562,1.156-1.938,2.689c-0.376,1.535-0.376,3.957-0.242,6.137
			s0.403,4.115,1.399,6.432c0.996,2.314,2.718,5.006,4.197,6.996c1.481,1.992,2.718,3.281,4.898,4.68
			c2.179,1.402,5.301,2.907,9.391,3.769c4.091,0.859,9.148,1.076,18.244,1.129c9.094,0.055,22.226-0.053,29.383-0.402
			s8.341-0.941,10.037-1.938c1.695-0.995,3.902-2.396,5.866-4.011c1.964-1.611,3.687-3.443,4.897-5.811
			c1.211-2.369,1.911-5.275,2.287-9.311c0.376-4.035,0.431-9.203,0.35-12.918c-0.081-3.711-0.295-5.973-0.888-8.313
			c-0.592-2.34-1.561-4.762-3.013-6.916c-1.454-2.152-3.391-4.037-5.597-5.381c-2.207-1.344-4.682-2.152-6.996-2.771
			c-2.315-0.617-4.468-1.051-7.75-1.32c-3.283-0.268-7.695-0.375-13.006-0.414c-5.313-0.043-11.521-0.016-17.729,0.01
			c-0.055-4.063-0.108-8.127-0.162-12.188c2.335,0.053,4.668,0.107,8.152,0.102c3.485-0.008,8.12-0.076,12.755-0.143
			c-0.058,2.465-0.117,4.926-0.089,6.652c0.028,1.723,0.143,2.709,0.518,3.365c0.375,0.66,1.013,0.994,2.38,1.053
			C401.315,75.706,403.414,75.491,408.003,75.503"/>
		<path fill-rule="evenodd" clip-rule="evenodd" fill="#FFFFFF" d="M441.824,41.284c5.058-0.105,14.638-0.105,19.858,0
			c5.22,0.111,6.081,0.324,6.619,0.754c0.539,0.43,0.753,1.076,0.833,5.031c0.082,3.955,0.026,11.223,0.035,22.549
			c0.006,11.33,0.074,26.721,0.141,42.111c7.898,0,15.795,0.002,23.692,0.002c-0.107-22.955-0.215-45.906-0.228-57.678
			c-0.014-11.773,0.067-12.365,2.516-12.674c2.447-0.311,7.265-0.338,12.821-0.297c5.557,0.039,11.854,0.148,15.082,0.498
			s3.389,0.943,3.443,11.006s0,29.6-0.055,42.461c-0.053,12.863-0.105,19.053-0.455,23.031c-0.352,3.982-0.996,5.76-2.395,7.564
			c-1.4,1.803-3.553,3.633-5.867,5.271c-2.314,1.643-4.789,3.097-7.696,4.011c-2.906,0.914-6.242,1.291-15.121,1.533
			c-8.881,0.242-23.303,0.35-31.833,0.082c-8.53-0.27-11.168-0.916-13.644-1.992c-2.475-1.076-4.789-2.583-7.022-4.548
			c-2.233-1.965-4.386-4.387-5.705-6.861c-1.32-2.475-1.803-5.002-1.884-17.813c-0.08-12.809,0.243-35.896,0.431-48.193
			c0.188-12.297,0.243-13.805,0.539-14.666C436.227,41.608,436.765,41.396,441.824,41.284"/>
		<path fill-rule="evenodd" clip-rule="evenodd" fill="#FFFFFF" d="M565.48,64.827c0.107,15.391,0.215,30.781,0.324,46.176
			c7.805-0.018,15.611-0.027,23.416-0.043c-0.283-15.377-0.566-30.756-0.852-46.133C580.74,64.827,573.111,64.827,565.48,64.827
			 M532.129,59.122c-0.215,15.176-0.215,44.234-0.105,59.25c0.105,15.016,0.322,15.985,0.969,16.522
			c0.645,0.539,1.721,0.646,13.076,0.646s32.988-0.107,44.99-0.377c12.002-0.268,14.369-0.699,16.574-1.563
			c2.209-0.858,4.252-2.151,6.35-3.821c2.102-1.664,4.254-3.713,5.762-5.271c1.506-1.563,2.365-2.637,2.742-6.082
			c0.377-3.443,0.27-9.256,0.162-19.805c-0.105-10.549-0.215-25.832-0.592-34.387c-0.375-8.557-1.021-10.387-2.207-12.379
			c-1.184-1.992-2.906-4.143-5.059-5.813c-2.152-1.664-4.734-2.852-6.672-3.766c-1.939-0.916-3.229-1.563-15.068-1.83
			c-11.842-0.268-34.229-0.162-45.959,0.053c-11.732,0.215-12.809,0.539-13.563,1.344C532.775,42.653,532.346,43.944,532.129,59.122
			z"/>
		<path fill-rule="evenodd" clip-rule="evenodd" fill="#FFFFFF" d="M694.092,75.825c4.588,0.016,11.662,0.256,15.848,0.107
			c4.186-0.146,5.475-0.686,6.189-1.721c0.713-1.037,0.846-2.568,0.889-5.086c0.039-2.518-0.016-6.014-0.096-8.623
			c-0.08-2.613-0.189-4.332-1.83-6.836c-1.641-2.502-4.814-5.785-7.264-7.912c-2.451-2.123-4.172-3.094-5.625-3.9
			c-1.451-0.809-2.637-1.451-11.73-1.775c-9.096-0.324-26.102-0.324-35.439,0s-11.006,0.967-12.916,1.963s-4.063,2.342-5.92,3.605
			c-1.855,1.268-3.418,2.451-4.627,3.902c-1.211,1.453-2.074,3.176-2.773,4.789c-0.699,1.615-1.236,3.123-1.559,5.168
			c-0.324,2.045-0.432,4.629-0.459,8.852c-0.027,4.225,0.027,10.092,0.406,13.777c0.375,3.686,1.074,5.193,1.881,6.701
			c0.807,1.506,1.723,3.012,2.961,4.492s2.797,2.934,4.736,4.252c1.936,1.318,4.25,2.504,11.891,3.094
			c7.645,0.592,20.613,0.592,33.584,0.592c0.055,3.285,0.107,6.566,0.16,9.85c-6.691,0.053-13.387,0.104-20.078,0.154
			c-0.035-1.611-0.068-3.225-0.086-4.326c-0.016-1.104-0.016-1.695-0.34-2.18c-0.322-0.482-0.969-0.861-2.072-1.129
			c-1.104-0.27-2.662-0.432-7.506-0.432c-4.846,0-12.971,0.162-17.463,0.432c-4.494,0.268-5.357,0.646-6.162,1.156
			c-0.809,0.51-1.563,1.156-1.939,2.691s-0.377,3.957-0.242,6.135c0.135,2.18,0.404,4.117,1.4,6.432s2.719,5.004,4.197,6.996
			c1.48,1.99,2.717,3.281,4.896,4.682s5.303,2.905,9.393,3.767s9.148,1.076,18.242,1.131c9.098,0.053,22.229-0.055,29.385-0.404
			c7.158-0.35,8.342-0.941,10.037-1.936c1.693-0.995,3.9-2.397,5.865-4.013c1.965-1.611,3.686-3.441,4.896-5.809
			c1.213-2.369,1.91-5.275,2.287-9.313c0.379-4.035,0.432-9.203,0.35-12.916c-0.082-3.711-0.293-5.973-0.887-8.313
			c-0.59-2.342-1.561-4.762-3.016-6.916c-1.451-2.152-3.391-4.037-5.596-5.381c-2.207-1.346-4.682-2.154-6.996-2.773
			c-2.313-0.617-4.465-1.049-7.748-1.318c-3.285-0.27-7.697-0.377-13.008-0.416c-5.313-0.041-11.52-0.016-17.729,0.012
			c-0.053-4.064-0.107-8.127-0.162-12.188c2.334,0.053,4.668,0.107,8.154,0.1c3.484-0.006,8.119-0.074,12.756-0.143
			c-0.061,2.463-0.121,4.928-0.092,6.654c0.029,1.723,0.143,2.707,0.518,3.367c0.375,0.656,1.014,0.992,2.383,1.049
			C687.404,76.028,689.502,75.812,694.092,75.825"/>
		<path fill-rule="evenodd" clip-rule="evenodd" fill="#FFFFFF" d="M775.99,77.54c7.965,0,15.932,0,23.896,0
			c0.107-1.4,0.213-2.799,0.268-4.145s0.055-2.637,0.594-4.52c0.537-1.883,1.611-4.361,2.906-5.814
			c1.289-1.451,2.797-1.881,4.465-2.098c1.67-0.215,3.498-0.215,5.061,0.109c1.559,0.322,2.852,0.969,3.98,1.936
			c1.131,0.969,2.1,2.26,2.639,3.715c0.537,1.453,0.643,3.066,0.43,4.572c-0.215,1.508-0.752,2.908-1.99,4.682
			c-1.238,1.777-3.176,3.93-6.029,6.244c-2.852,2.313-6.619,4.789-10.871,7.805c-4.248,3.012-8.988,6.564-12.432,9.74
			s-5.596,5.973-7.643,8.879c-2.043,2.906-3.98,5.92-5.219,8.449s-1.775,4.572-1.938,6.781c-0.16,2.205,0.057,4.572,0.27,6.941
			c3.229,0,6.457,0,18.672-0.107c12.219-0.107,33.422-0.322,54.625-0.539c0.107-0.861,0.215-1.723,0.27-5.166
			c0.053-3.443,0.053-9.473,0.053-12.807c0-3.338,0-3.984-0.268-4.467c-0.27-0.484-0.809-0.809-1.938-0.971
			c-1.131-0.16-2.852-0.16-8.934,0c-6.082,0.162-16.521,0.486-26.961,0.809c1.615-1.186,3.227-2.367,5.756-3.875
			c2.531-1.508,5.975-3.338,9.58-5.438c3.607-2.098,7.375-4.465,10.064-6.404c2.689-1.934,4.307-3.441,6.082-5.594
			c1.775-2.154,3.713-4.951,5.004-7.211c1.291-2.262,1.938-3.982,2.369-6.191c0.43-2.205,0.645-4.896,0.105-7.857
			c-0.537-2.957-1.828-6.189-3.443-8.824c-1.615-2.637-3.553-4.682-6.188-6.889c-2.639-2.207-5.975-4.574-9.098-6.244
			c-3.119-1.666-6.027-2.637-8.988-3.119c-2.957-0.484-5.971-0.484-9.309-0.217c-3.336,0.27-6.994,0.807-10.115,1.561
			c-3.123,0.756-5.705,1.723-8.396,3.283c-2.691,1.563-5.49,3.715-7.805,6.135c-2.313,2.422-4.143,5.113-5.596,8.072
			c-1.453,2.963-2.529,6.189-3.123,9.365C776.207,71.296,776.098,74.419,775.99,77.54"/>
		<path fill-rule="evenodd" clip-rule="evenodd" fill="#FFFFFF" d="M914.121,40.155c4.684-0.107,13.555-0.107,18.389,0
			c4.836,0.109,5.631,0.322,6.129,0.754c0.5,0.432,0.697,1.076,0.775,5.033c0.072,3.953,0.021,11.221,0.027,22.547
			c0.006,11.33,0.07,26.721,0.133,42.111c7.314,0,14.627,0,21.938,0.002c-0.098-22.953-0.195-45.908-0.211-57.68
			c-0.012-11.77,0.064-12.363,2.33-12.67c2.27-0.313,6.729-0.34,11.873-0.299s10.979,0.148,13.967,0.498
			c2.99,0.35,3.139,0.943,3.191,11.006c0.049,10.063-0.004,29.6-0.053,42.461c-0.049,12.863-0.098,19.049-0.422,23.033
			c-0.322,3.98-0.922,5.76-2.217,7.563c-1.297,1.801-3.291,3.631-5.434,5.271c-2.141,1.643-4.436,3.096-7.127,4.011
			c-2.691,0.914-5.779,1.291-14.002,1.533c-8.225,0.242-21.58,0.35-29.479,0.078c-7.898-0.266-10.34-0.912-12.633-1.987
			c-2.293-1.078-4.436-2.584-6.504-4.549c-2.066-1.967-4.061-4.387-5.283-6.861c-1.221-2.477-1.67-5.004-1.744-17.814
			c-0.074-12.809,0.227-35.895,0.398-48.191c0.176-12.297,0.227-13.803,0.5-14.664C908.939,40.478,909.434,40.265,914.121,40.155"/>
		<rect x="724.053" y="86.302" fill-rule="evenodd" clip-rule="evenodd" fill="#FFFFFF" width="38.707" height="22.119"/>
		<rect x="861.365" y="86.341" fill-rule="evenodd" clip-rule="evenodd" fill="#FFFFFF" width="38.707" height="22.121"/>
		<g>
			<g>
				<path fill="#00ADEE" d="M324.844,201.654V168.52h-12.93v-6.746h34.63v6.746h-12.901v33.135H324.844z"/>
				<path fill="#00ADEE" d="M352.251,201.654v-39.881h8.799v15.697h17.241v-15.697h8.799v39.881h-8.799v-17.438H361.05v17.438
					H352.251z"/>
				<path fill="#00ADEE" d="M396.186,201.654v-39.881h32.312v6.746h-23.513v8.842h21.878v6.719h-21.878v10.855h24.345v6.719H396.186
					z"/>
				<path fill="#00ADEE" d="M453.585,201.654v-39.881h13.168l7.907,27.205l7.818-27.205h13.198v39.881h-8.174v-31.393l-8.65,31.393
					h-8.472l-8.62-31.393v31.393H453.585z"/>
				<path fill="#00ADEE" d="M502.633,181.959c0-4.063,0.664-7.471,1.992-10.229c0.991-2.031,2.343-3.854,4.058-5.469
					c1.714-1.613,3.592-2.811,5.632-3.59c2.715-1.053,5.848-1.578,9.395-1.578c6.42,0,11.559,1.822,15.412,5.469
					c3.854,3.645,5.781,8.713,5.781,15.207c0,6.438-1.912,11.475-5.736,15.111s-8.938,5.453-15.338,5.453
					c-6.48,0-11.634-1.809-15.458-5.426C504.545,193.289,502.633,188.307,502.633,181.959z M511.699,181.688
					c0,4.516,1.139,7.939,3.418,10.27c2.279,2.33,5.174,3.494,8.682,3.494c3.506,0,6.385-1.154,8.635-3.467
					c2.248-2.313,3.373-5.781,3.373-10.406c0-4.57-1.096-7.98-3.285-10.229s-5.098-3.373-8.723-3.373
					c-3.627,0-6.551,1.139-8.77,3.414C512.809,173.666,511.699,177.1,511.699,181.688z"/>
				<path fill="#00ADEE" d="M551.799,161.773h17.42c3.447,0,6.02,0.133,7.713,0.395c1.695,0.264,3.211,0.813,4.549,1.646
					s2.451,1.945,3.344,3.332s1.338,2.943,1.338,4.666c0,1.867-0.551,3.582-1.65,5.141c-1.1,1.561-2.592,2.73-4.473,3.51
					c2.654,0.707,4.695,1.914,6.123,3.617c1.426,1.705,2.141,3.709,2.141,6.014c0,1.813-0.461,3.576-1.383,5.291
					c-0.922,1.713-2.18,3.082-3.775,4.107s-3.563,1.654-5.9,1.891c-1.467,0.145-5.004,0.236-10.611,0.271h-14.834V161.773z
					 M560.598,168.412v9.221h5.768c3.428,0,5.559-0.045,6.391-0.135c1.506-0.164,2.689-0.641,3.553-1.428
					c0.861-0.789,1.293-1.828,1.293-3.115c0-1.234-0.373-2.236-1.115-3.006c-0.744-0.771-1.848-1.238-3.314-1.402
					c-0.873-0.09-3.379-0.135-7.521-0.135H560.598z M560.598,184.271v10.664h8.145c3.172,0,5.182-0.082,6.035-0.246
					c1.307-0.217,2.373-0.748,3.195-1.59c0.822-0.844,1.234-1.973,1.234-3.387c0-1.197-0.318-2.213-0.953-3.047
					c-0.633-0.834-1.551-1.443-2.748-1.824c-1.199-0.381-3.801-0.57-7.803-0.57H560.598z"/>
				<path fill="#00ADEE" d="M595.465,201.654v-39.881h8.799v39.881H595.465z"/>
				<path fill="#00ADEE" d="M612.885,201.654V162.1h8.799v32.836h21.879v6.719H612.885z"/>
				<path fill="#00ADEE" d="M649.834,201.654v-39.881h32.313v6.746h-23.514v8.842h21.877v6.719h-21.877v10.855h24.346v6.719H649.834
					z"/>
				<path fill="#00ADEE" d="M713.535,201.654l-10.404-39.881h9.008l6.568,27.395l7.967-27.395h10.463l7.641,27.857l6.688-27.857
					h8.859l-10.584,39.881h-9.334l-8.68-29.814l-8.648,29.814H713.535z"/>
			</g>
			<g>
				<path fill="#00ADEE" d="M800.754,201.654h-9.572l-3.805-9.059h-17.42l-3.596,9.059h-9.334L774,161.773h9.305L800.754,201.654z
					 M784.553,185.877l-6.004-14.799l-5.887,14.799H784.553z"/>
				<path fill="#00ADEE" d="M803.189,188.678l8.563-0.762c0.514,2.631,1.561,4.563,3.135,5.795c1.576,1.234,3.701,1.85,6.377,1.85
					c2.834,0,4.969-0.549,6.406-1.645c1.436-1.098,2.154-2.381,2.154-3.85c0-0.943-0.303-1.746-0.906-2.408
					c-0.605-0.662-1.66-1.238-3.166-1.727c-1.031-0.328-3.379-0.908-7.045-1.742c-4.717-1.07-8.025-2.385-9.928-3.943
					c-2.676-2.195-4.014-4.871-4.014-8.025c0-2.031,0.629-3.932,1.889-5.699c1.258-1.77,3.07-3.115,5.439-4.041
					c2.367-0.924,5.227-1.387,8.576-1.387c5.469,0,9.586,1.098,12.35,3.291c2.766,2.195,4.217,5.125,4.355,8.787l-8.799,0.354
					c-0.377-2.049-1.184-3.521-2.422-4.42c-1.24-0.898-3.098-1.348-5.574-1.348c-2.557,0-4.559,0.482-6.004,1.443
					c-0.932,0.615-1.398,1.441-1.398,2.475c0,0.943,0.436,1.75,1.309,2.422c1.109,0.852,3.805,1.74,8.086,2.666
					c4.279,0.924,7.445,1.881,9.496,2.869s3.656,2.34,4.816,4.053c1.158,1.715,1.738,3.832,1.738,6.354
					c0,2.285-0.693,4.424-2.08,6.42c-1.389,1.994-3.35,3.477-5.887,4.447s-5.697,1.455-9.482,1.455c-5.51,0-9.74-1.164-12.691-3.496
					C805.529,196.535,803.766,193.141,803.189,188.678z"/>
				<path fill="#00ADEE" d="M846.055,201.654v-39.881h8.799v15.697h17.24v-15.697h8.799v39.881h-8.799v-17.438h-17.24v17.438
					H846.055z"/>
			</g>
			<g>
				<path fill="#00ADEE" d="M943.939,201.654h-9.572l-3.805-9.059h-17.42l-3.596,9.059h-9.334l16.973-39.881h9.305L943.939,201.654z
					 M927.738,185.877l-6.004-14.799l-5.887,14.799H927.738z"/>
				<path fill="#00ADEE" d="M948.605,201.654v-39.881h14.119c5.352,0,8.838,0.201,10.463,0.6c2.498,0.598,4.588,1.898,6.273,3.902
					c1.684,2.004,2.525,4.594,2.525,7.768c0,2.447-0.484,4.506-1.455,6.176c-0.973,1.668-2.205,2.979-3.701,3.93
					c-1.496,0.953-3.018,1.582-4.563,1.891c-2.102,0.381-5.143,0.572-9.127,0.572h-5.736v15.043H948.605z M957.404,168.52v11.318
					h4.814c3.469,0,5.787-0.209,6.957-0.627c1.168-0.416,2.086-1.07,2.75-1.959c0.662-0.887,0.994-1.922,0.994-3.1
					c0-1.451-0.465-2.648-1.396-3.592s-2.109-1.531-3.537-1.768c-1.051-0.182-3.16-0.273-6.332-0.273H957.404z"/>
				<path fill="#00ADEE" d="M989.211,201.654v-39.881h14.119c5.352,0,8.838,0.201,10.463,0.6c2.498,0.598,4.588,1.898,6.273,3.902
					c1.684,2.004,2.525,4.594,2.525,7.768c0,2.447-0.484,4.506-1.455,6.176c-0.973,1.668-2.205,2.979-3.701,3.93
					c-1.496,0.953-3.018,1.582-4.563,1.891c-2.102,0.381-5.143,0.572-9.127,0.572h-5.736v15.043H989.211z M998.01,168.52v11.318
					h4.814c3.469,0,5.787-0.209,6.957-0.627c1.168-0.416,2.086-1.07,2.75-1.959c0.662-0.887,0.994-1.922,0.994-3.1
					c0-1.451-0.465-2.648-1.396-3.592s-2.109-1.531-3.537-1.768c-1.051-0.182-3.16-0.273-6.332-0.273H998.01z"/>
			</g>
		</g>
	</g>
</g>
</svg>
