<?xml version="1.0" encoding="utf-8"?>
<!-- Generator: Adobe Illustrator 16.0.0, SVG Export Plug-In . SVG Version: 6.00 Build 0)  -->
<!DOCTYPE svg PUBLIC "-//W3C//DTD SVG 1.1//EN" "http://www.w3.org/Graphics/SVG/1.1/DTD/svg11.dtd">
<svg version="1.1" id="Layer_1" xmlns="http://www.w3.org/2000/svg" xmlns:xlink="http://www.w3.org/1999/xlink" x="0px" y="0px"
	 width="1024px" height="606.904px" viewBox="0 0 1024 606.904" enable-background="new 0 0 1024 606.904" xml:space="preserve">
<g>
	<path fill-rule="evenodd" clip-rule="evenodd" fill="#FFFFFF" d="M507.533,342.002c17.534,0,36.168-5.079,51.077-12.602
		c7.661-3.865,14.995-8.51,21.605-13.881c12.707-10.324,23.395-25.731,30.686-40.291c5.872-11.73,10.724-29.279,10.724-46.654
		c0-16.698-3.65-31.334-8.333-45.396c-6.313-18.947-12.191-32.083-21.071-49.575l-21.859-37.838
		c-6.507-10.866-14.196-22.26-21.238-32.823c-1.499-2.248-2.838-4.454-4.393-6.55l-22.365-32.027
		c-2.477-3.305-17.066-23.343-18.269-24.873c-0.615,1.03-27.06,38.019-30.197,42.553l-36.207,54.337
		c-2.393,3.905-4.554,7.393-6.916,11.324l-16.556,28.881c-3.406,6.711-5.789,11.36-8.849,18.348
		c-3.687,8.421-6.938,17.363-9.983,26.5c-10.441,31.335-12.974,56.893,0.75,90.21c1.778,4.318,3.689,8.252,5.811,12.431l5.086,8.512
		c6.256,9.486,11.414,14.189,19.498,21.296c6.706,5.898,19.992,13.457,28.455,16.982l13.117,4.792
		c2.448,0.756,4.705,1.394,7.256,2.031c4.584,1.147,10.191,2.437,15.256,2.983C495.932,341.252,501.615,342.002,507.533,342.002z"/>
	<path fill="none" stroke="#FFFFFF" stroke-width="2.9034" stroke-miterlimit="2.6131" d="M507.533,342.002
		c17.534,0,36.168-5.079,51.077-12.602c7.661-3.865,14.995-8.51,21.605-13.881c12.707-10.324,23.395-25.731,30.686-40.291
		c5.872-11.73,10.724-29.279,10.724-46.654c0-16.698-3.65-31.334-8.333-45.396c-6.313-18.947-12.191-32.083-21.071-49.575
		l-21.859-37.838c-6.507-10.866-14.196-22.26-21.238-32.823c-1.499-2.248-2.838-4.454-4.393-6.55l-22.365-32.027
		c-2.477-3.305-17.066-23.343-18.269-24.873c-0.615,1.03-27.06,38.019-30.197,42.553l-36.207,54.337
		c-2.393,3.905-4.554,7.393-6.916,11.324l-16.556,28.881c-3.406,6.711-5.789,11.36-8.849,18.348
		c-3.687,8.421-6.938,17.363-9.983,26.5c-10.441,31.335-12.974,56.893,0.75,90.21c1.778,4.318,3.689,8.252,5.811,12.431l5.086,8.512
		c6.256,9.486,11.414,14.189,19.498,21.296c6.706,5.898,19.992,13.457,28.455,16.982l13.117,4.792
		c2.448,0.756,4.705,1.394,7.256,2.031c4.584,1.147,10.191,2.437,15.256,2.983C495.932,341.252,501.615,342.002,507.533,342.002z"/>
	<path fill-rule="evenodd" clip-rule="evenodd" fill="#388AC9" d="M588.338,228.575c-0.063-18.425-6.609-36.01-12.603-51.293
		c-12.301-31.364-38.73-73.7-58.167-101.694l-9.751-14.124c-0.64-0.958-1.089-1.497-1.654-2.32
		c-0.354-0.514-0.466-0.763-0.773-1.206l-1.304-1.279c-0.604,1.482-6.092,8.971-7.385,10.838
		c-20.186,29.188-31.574,47.185-49.514,78.18c-8.639,14.928-16.372,32.829-21.797,51.17c-7.114,24.052-7.915,37.814,1.185,61.275
		c3.853,9.936,8.015,16.263,13.471,23.021l4.478,4.464c1.676,1.352,3.229,2.734,5.138,4.151c3.132,2.328,7.138,4.965,11.157,7.08
		c26.932,14.163,58.977,16.723,86.835,0.71c8.677-4.987,14.422-9.806,20.078-16.396c0.668-0.778,1.116-1.456,1.923-2.396
		C580.798,265.729,588.4,246.291,588.338,228.575z"/>
	<path fill="none" stroke="#000000" stroke-width="2.9034" stroke-miterlimit="2.6131" d="M588.338,228.575
		c-0.063-18.425-6.609-36.01-12.603-51.293c-12.301-31.364-38.73-73.7-58.167-101.694l-9.751-14.124
		c-0.64-0.958-1.089-1.497-1.654-2.32c-0.354-0.514-0.466-0.763-0.773-1.206l-1.304-1.279c-0.604,1.482-6.092,8.971-7.385,10.838
		c-20.186,29.188-31.574,47.185-49.514,78.18c-8.639,14.928-16.372,32.829-21.797,51.17c-7.114,24.052-7.915,37.814,1.185,61.275
		c3.853,9.936,8.015,16.263,13.471,23.021l4.478,4.464c1.676,1.352,3.229,2.734,5.138,4.151c3.132,2.328,7.138,4.965,11.157,7.08
		c26.932,14.163,58.977,16.723,86.835,0.71c8.677-4.987,14.422-9.806,20.078-16.396c0.668-0.778,1.116-1.456,1.923-2.396
		C580.798,265.729,588.4,246.291,588.338,228.575z"/>
	<path fill-rule="evenodd" clip-rule="evenodd" fill="#00ADEE" d="M380.933,24.876c3.714-4.055,5.786-5.771,7.515-6.98
		c1.727-1.208,3.108-1.912,4.663-1.912c1.556,0,3.282,0.703,5.011,2.042c1.727,1.338,3.453,3.314,7.945,8.361
		c4.49,5.047,11.746,13.166,16.41,18.349c4.664,5.182,6.737,7.428,8.033,9.025c1.295,1.598,1.814,2.547,1.77,3.585
		c-0.043,1.036-0.647,2.16-1.469,3.368c-0.819,1.209-1.855,2.505-3.238,4.448c-1.383,1.943-3.109,4.535-5.959,8.854
		c-2.851,4.318-6.824,10.363-10.408,15.891c-3.585,5.528-6.78,10.538-10.494,16.453c-3.714,5.917-7.945,12.74-11.594,19.304
		c-3.648,6.565-6.711,12.87-9.302,19.001c-2.592,6.133-4.71,12.093-6.548,17.448c-1.836,5.355-3.391,10.105-4.471,14.035
		c-1.079,3.929-1.684,7.038-2.16,12.48c-0.474,5.441-0.819,13.214-0.862,19.952c-0.042,6.736,0.216,12.438,0.389,17.964
		c0.173,5.527,0.26,10.884,0.69,16.324c0.433,5.442,1.21,10.97,1.813,14.51c0.604,3.542,1.037,5.095,0.665,6.592
		c-0.373,1.499-1.55,2.939-3.796,3.154c-2.245,0.217-5.56-0.792-9.204-2.851c-3.643-2.059-7.615-5.169-12.842-9.961
		c-5.226-4.793-11.703-11.272-17.273-18.484s-10.236-15.158-13.43-21.896c-3.196-6.737-4.924-12.263-6.146-17.705
		c-1.224-5.441-1.943-10.797-2.303-16.196c-0.359-5.397-0.359-10.838,0.476-17.36c0.834-6.52,2.504-14.121,4.59-21.549
		c2.088-7.429,4.591-14.683,7.011-20.815c2.418-6.132,4.75-11.141,8.076-16.972c3.324-5.83,7.644-12.48,12.523-19.821
		c4.879-7.341,10.32-15.374,15.33-22.457c5.01-7.083,9.586-13.214,14.554-19.476C371.863,35.321,377.219,28.928,380.933,24.876z"/>
	<path fill="none" stroke="#FFFFFF" stroke-width="2.1775" stroke-miterlimit="2.6131" d="M380.933,24.876
		c3.714-4.055,5.786-5.771,7.515-6.98c1.727-1.208,3.108-1.912,4.663-1.912c1.556,0,3.282,0.703,5.011,2.042
		c1.727,1.338,3.453,3.314,7.945,8.361c4.49,5.047,11.746,13.166,16.41,18.349c4.664,5.182,6.737,7.428,8.033,9.025
		c1.295,1.598,1.814,2.547,1.77,3.585c-0.043,1.036-0.647,2.16-1.469,3.368c-0.819,1.209-1.855,2.505-3.238,4.448
		c-1.383,1.943-3.109,4.535-5.959,8.854c-2.851,4.318-6.824,10.363-10.408,15.891c-3.585,5.528-6.78,10.538-10.494,16.453
		c-3.714,5.917-7.945,12.74-11.594,19.304c-3.648,6.565-6.711,12.87-9.302,19.001c-2.592,6.133-4.71,12.093-6.548,17.448
		c-1.836,5.355-3.391,10.105-4.471,14.035c-1.079,3.929-1.684,7.038-2.16,12.48c-0.474,5.441-0.819,13.214-0.862,19.952
		c-0.042,6.736,0.216,12.438,0.389,17.964c0.173,5.527,0.26,10.884,0.69,16.324c0.433,5.442,1.21,10.97,1.813,14.51
		c0.604,3.542,1.037,5.095,0.665,6.592c-0.373,1.499-1.55,2.939-3.796,3.154c-2.245,0.217-5.56-0.792-9.204-2.851
		c-3.643-2.059-7.615-5.169-12.842-9.961c-5.226-4.793-11.703-11.272-17.273-18.484s-10.236-15.158-13.43-21.896
		c-3.196-6.737-4.924-12.263-6.146-17.705c-1.224-5.441-1.943-10.797-2.303-16.196c-0.359-5.397-0.359-10.838,0.476-17.36
		c0.834-6.52,2.504-14.121,4.59-21.549c2.088-7.429,4.591-14.683,7.011-20.815c2.418-6.132,4.75-11.141,8.076-16.972
		c3.324-5.83,7.644-12.48,12.523-19.821c4.879-7.341,10.32-15.374,15.33-22.457c5.01-7.083,9.586-13.214,14.554-19.476
		C371.863,35.321,377.219,28.928,380.933,24.876z"/>
	<path fill-rule="evenodd" clip-rule="evenodd" fill="#0296FA" d="M630.89,25.548c-3.713-4.055-5.786-5.771-7.514-6.979
		c-1.728-1.21-3.109-1.913-4.664-1.913c-1.554,0-3.281,0.703-5.008,2.041c-1.729,1.339-3.454,3.314-7.946,8.361
		c-4.493,5.046-11.747,13.165-16.412,18.349c-4.663,5.183-6.735,7.427-8.03,9.025c-1.296,1.598-1.815,2.549-1.771,3.585
		c0.042,1.036,0.647,2.159,1.468,3.368c0.822,1.21,1.857,2.505,3.238,4.448c1.384,1.944,3.111,4.534,5.96,8.854
		c2.851,4.318,6.822,10.364,10.409,15.892c3.583,5.527,6.779,10.538,10.494,16.454c3.712,5.916,7.944,12.738,11.592,19.303
		s6.711,12.87,9.305,19.001c2.589,6.134,4.709,12.093,6.544,17.448c1.837,5.354,3.393,10.104,4.471,14.034
		c1.082,3.931,1.688,7.04,2.162,12.48c0.475,5.442,0.817,13.215,0.863,19.952c0.043,6.738-0.217,12.438-0.389,17.965
		c-0.174,5.527-0.261,10.882-0.691,16.324c-0.433,5.441-1.21,10.97-1.814,14.51c-0.605,3.542-1.034,5.096-0.662,6.593
		c0.372,1.499,1.549,2.939,3.795,3.154c2.245,0.217,5.56-0.792,9.202-2.851c3.644-2.059,7.618-5.167,12.842-9.961
		c5.226-4.793,11.702-11.272,17.275-18.484c5.57-7.211,10.235-15.158,13.43-21.895c3.196-6.737,4.924-12.264,6.147-17.706
		c1.222-5.44,1.942-10.796,2.301-16.194c0.359-5.397,0.359-10.84-0.475-17.36c-0.836-6.521-2.503-14.122-4.592-21.55
		c-2.087-7.428-4.591-14.684-7.008-20.814c-2.419-6.134-4.754-11.143-8.075-16.974c-3.326-5.829-7.646-12.48-12.526-19.821
		c-4.878-7.341-10.32-15.374-15.331-22.458c-5.01-7.082-9.585-13.213-14.552-19.475C639.959,35.992,634.605,29.601,630.89,25.548z"
		/>
	<path fill="none" stroke="#0296FA" stroke-width="0.363" stroke-miterlimit="2.6131" d="M630.89,25.548
		c-3.713-4.055-5.786-5.771-7.514-6.979c-1.728-1.21-3.109-1.913-4.664-1.913c-1.554,0-3.281,0.703-5.008,2.041
		c-1.729,1.339-3.454,3.314-7.946,8.361c-4.493,5.046-11.747,13.165-16.412,18.349c-4.663,5.183-6.735,7.427-8.03,9.025
		c-1.296,1.598-1.815,2.549-1.771,3.585c0.042,1.036,0.647,2.159,1.468,3.368c0.822,1.21,1.857,2.505,3.238,4.448
		c1.384,1.944,3.111,4.534,5.96,8.854c2.851,4.318,6.822,10.364,10.409,15.892c3.583,5.527,6.779,10.538,10.494,16.454
		c3.712,5.916,7.944,12.738,11.592,19.303s6.711,12.87,9.305,19.001c2.589,6.134,4.709,12.093,6.544,17.448
		c1.837,5.354,3.393,10.104,4.471,14.034c1.082,3.931,1.688,7.04,2.162,12.48c0.475,5.442,0.817,13.215,0.863,19.952
		c0.043,6.738-0.217,12.438-0.389,17.965c-0.174,5.527-0.261,10.882-0.691,16.324c-0.433,5.441-1.21,10.97-1.814,14.51
		c-0.605,3.542-1.034,5.096-0.662,6.593c0.372,1.499,1.549,2.939,3.795,3.154c2.245,0.217,5.56-0.792,9.202-2.851
		c3.644-2.059,7.618-5.167,12.842-9.961c5.226-4.793,11.702-11.272,17.275-18.484c5.57-7.211,10.235-15.158,13.43-21.895
		c3.196-6.737,4.924-12.264,6.147-17.706c1.222-5.44,1.942-10.796,2.301-16.194c0.359-5.397,0.359-10.84-0.475-17.36
		c-0.836-6.521-2.503-14.122-4.592-21.55c-2.087-7.428-4.591-14.684-7.008-20.814c-2.419-6.134-4.754-11.143-8.075-16.974
		c-3.326-5.829-7.646-12.48-12.526-19.821c-4.878-7.341-10.32-15.374-15.331-22.458c-5.01-7.082-9.585-13.213-14.552-19.475
		C639.959,35.992,634.605,29.601,630.89,25.548z"/>
	<path fill-rule="evenodd" clip-rule="evenodd" fill="#00ADEE" d="M504.357,27.85c-7.6,10.71-15.201,21.42-23.493,33.426
		c-8.292,12.004-17.273,25.307-25.995,39.121c-8.721,13.814-17.18,28.144-23.225,39.114c-6.045,10.968-9.68,18.577-13.225,27.392
		c-3.542,8.813-6.998,18.833-9.589,27.383s-4.318,15.632-5.096,23.061c-0.776,7.428-0.604,15.201,0.863,23.759
		c1.469,8.558,4.232,17.902,8.033,26.71c3.8,8.811,8.637,17.088,14.941,24.162c6.306,7.075,14.079,12.947,22.284,17.699
		c8.205,4.75,16.842,8.377,26.516,11.056c9.674,2.677,20.385,4.403,30.402,4.49c10.019,0.085,19.346-1.468,28.588-4.405
		c9.243-2.936,18.397-7.255,25.912-12.092c7.515-4.835,13.386-10.19,19.174-17.007c5.788-6.814,11.487-15.091,15.72-24.247
		c4.232-9.155,6.994-19.189,8.119-28.438c1.122-9.25,0.604-17.713-0.518-25.4c-1.125-7.688-2.852-14.596-5.702-23.32
		c-2.849-8.724-6.824-19.26-10.623-28.157c-3.801-8.896-7.428-16.151-13.041-26.342c-5.614-10.193-13.215-23.322-21.594-36.708
		c-8.379-13.388-17.532-27.034-25.739-38.953C518.867,48.232,511.611,38.042,504.357,27.85z"/>
	<path fill="none" stroke="#0296FA" stroke-width="0.363" stroke-miterlimit="2.6131" d="M504.357,27.85
		c-7.6,10.71-15.201,21.42-23.493,33.426c-8.292,12.004-17.273,25.307-25.995,39.121c-8.721,13.814-17.18,28.144-23.225,39.114
		c-6.045,10.968-9.68,18.577-13.225,27.392c-3.542,8.813-6.998,18.833-9.589,27.383s-4.318,15.632-5.096,23.061
		c-0.776,7.428-0.604,15.201,0.863,23.759c1.469,8.558,4.232,17.902,8.033,26.71c3.8,8.811,8.637,17.088,14.941,24.162
		c6.306,7.075,14.079,12.947,22.284,17.699c8.205,4.75,16.842,8.377,26.516,11.056c9.674,2.677,20.385,4.403,30.402,4.49
		c10.019,0.085,19.346-1.468,28.588-4.405c9.243-2.936,18.397-7.255,25.912-12.092c7.515-4.835,13.386-10.19,19.174-17.007
		c5.788-6.814,11.487-15.091,15.72-24.247c4.232-9.155,6.994-19.189,8.119-28.438c1.122-9.25,0.604-17.713-0.518-25.4
		c-1.125-7.688-2.852-14.596-5.702-23.32c-2.849-8.724-6.824-19.26-10.623-28.157c-3.801-8.896-7.428-16.151-13.041-26.342
		c-5.614-10.193-13.215-23.322-21.594-36.708c-8.379-13.388-17.532-27.034-25.739-38.953
		C518.867,48.232,511.611,38.042,504.357,27.85z"/>
	<ellipse fill-rule="evenodd" clip-rule="evenodd" fill="#FFFFFF" cx="521.524" cy="263.83" rx="43.79" ry="43.142"/>
	
		<ellipse fill="none" stroke="#FFFFFF" stroke-width="2.1788" stroke-miterlimit="2.6131" cx="521.524" cy="263.83" rx="43.79" ry="43.142"/>
	<ellipse fill-rule="evenodd" clip-rule="evenodd" fill="#FFFFFF" cx="572.837" cy="217.573" rx="17.069" ry="16.819"/>
	
		<ellipse fill="none" stroke="#FFFFFF" stroke-width="1.4527" stroke-miterlimit="2.6131" cx="572.837" cy="217.573" rx="17.069" ry="16.819"/>
	<path fill-rule="evenodd" clip-rule="evenodd" fill="#00ADEE" d="M630.89,25.548c-3.713-4.055-5.786-5.771-7.514-6.979
		c-1.728-1.21-3.109-1.913-4.664-1.913c-1.554,0-3.281,0.703-5.008,2.041c-1.729,1.339-3.454,3.314-7.946,8.361
		c-4.493,5.046-11.747,13.165-16.412,18.349c-4.663,5.183-6.735,7.427-8.03,9.025c-1.296,1.598-1.815,2.549-1.771,3.585
		c0.042,1.036,0.647,2.159,1.468,3.368c0.822,1.21,1.857,2.505,3.238,4.448c1.384,1.944,3.111,4.534,5.96,8.854
		c2.851,4.318,6.822,10.364,10.409,15.892c3.583,5.527,6.779,10.538,10.494,16.454c3.712,5.916,7.944,12.738,11.592,19.303
		s6.711,12.87,9.305,19.001c2.589,6.134,4.709,12.093,6.544,17.448c1.837,5.354,3.393,10.104,4.471,14.034
		c1.082,3.931,1.688,7.04,2.162,12.48c0.475,5.442,0.817,13.215,0.863,19.952c0.043,6.738-0.217,12.438-0.389,17.965
		c-0.174,5.527-0.261,10.882-0.691,16.324c-0.433,5.441-1.21,10.97-1.814,14.51c-0.605,3.542-1.034,5.096-0.662,6.593
		c0.372,1.499,1.549,2.939,3.795,3.154c2.245,0.217,5.56-0.792,9.202-2.851c3.644-2.059,7.618-5.167,12.842-9.961
		c5.226-4.793,11.702-11.272,17.275-18.484c5.57-7.211,10.235-15.158,13.43-21.895c3.196-6.737,4.924-12.264,6.147-17.706
		c1.222-5.44,1.942-10.796,2.301-16.194c0.359-5.397,0.359-10.84-0.475-17.36c-0.836-6.521-2.503-14.122-4.592-21.55
		c-2.087-7.428-4.591-14.684-7.008-20.814c-2.419-6.134-4.754-11.143-8.075-16.974c-3.326-5.829-7.646-12.48-12.526-19.821
		c-4.878-7.341-10.32-15.374-15.331-22.458c-5.01-7.082-9.585-13.213-14.552-19.475C639.959,35.992,634.605,29.601,630.89,25.548z"
		/>
	<path fill="none" stroke="#FFFFFF" stroke-width="2.1775" stroke-miterlimit="2.6131" d="M630.89,25.548
		c-3.713-4.055-5.786-5.771-7.514-6.979c-1.728-1.21-3.109-1.913-4.664-1.913c-1.554,0-3.281,0.703-5.008,2.041
		c-1.729,1.339-3.454,3.314-7.946,8.361c-4.493,5.046-11.747,13.165-16.412,18.349c-4.663,5.183-6.735,7.427-8.03,9.025
		c-1.296,1.598-1.815,2.549-1.771,3.585c0.042,1.036,0.647,2.159,1.468,3.368c0.822,1.21,1.857,2.505,3.238,4.448
		c1.384,1.944,3.111,4.534,5.96,8.854c2.851,4.318,6.822,10.364,10.409,15.892c3.583,5.527,6.779,10.538,10.494,16.454
		c3.712,5.916,7.944,12.738,11.592,19.303s6.711,12.87,9.305,19.001c2.589,6.134,4.709,12.093,6.544,17.448
		c1.837,5.354,3.393,10.104,4.471,14.034c1.082,3.931,1.688,7.04,2.162,12.48c0.475,5.442,0.817,13.215,0.863,19.952
		c0.043,6.738-0.217,12.438-0.389,17.965c-0.174,5.527-0.261,10.882-0.691,16.324c-0.433,5.441-1.21,10.97-1.814,14.51
		c-0.605,3.542-1.034,5.096-0.662,6.593c0.372,1.499,1.549,2.939,3.795,3.154c2.245,0.217,5.56-0.792,9.202-2.851
		c3.644-2.059,7.618-5.167,12.842-9.961c5.226-4.793,11.702-11.272,17.275-18.484c5.57-7.211,10.235-15.158,13.43-21.895
		c3.196-6.737,4.924-12.264,6.147-17.706c1.222-5.44,1.942-10.796,2.301-16.194c0.359-5.397,0.359-10.84-0.475-17.36
		c-0.836-6.521-2.503-14.122-4.592-21.55c-2.087-7.428-4.591-14.684-7.008-20.814c-2.419-6.134-4.754-11.143-8.075-16.974
		c-3.326-5.829-7.646-12.48-12.526-19.821c-4.878-7.341-10.32-15.374-15.331-22.458c-5.01-7.082-9.585-13.213-14.552-19.475
		C639.959,35.992,634.605,29.601,630.89,25.548z"/>
	<path fill-rule="evenodd" clip-rule="evenodd" fill="#FFFFFF" d="M140.598,425.672c6.572,0.021,16.711,0.368,22.705,0.154
		c5.994-0.213,7.844-0.982,8.865-2.467c1.022-1.484,1.216-3.68,1.273-7.285c0.057-3.605-0.02-8.615-0.135-12.353
		c-0.116-3.743-0.27-6.208-2.622-9.795c-2.352-3.583-6.9-8.285-10.407-11.331c-3.509-3.045-5.976-4.434-8.056-5.59
		c-2.082-1.155-3.78-2.082-16.809-2.545c-13.028-0.462-37.392-0.462-50.769,0c-13.377,0.463-15.766,1.39-18.504,2.813
		c-2.738,1.428-5.82,3.354-8.48,5.166s-4.895,3.509-6.629,5.591c-1.736,2.08-2.97,4.549-3.971,6.86
		c-1.003,2.313-1.775,4.472-2.236,7.402c-0.463,2.93-0.617,6.63-0.654,12.683c-0.041,6.051,0.037,14.456,0.576,19.734
		c0.539,5.282,1.543,7.441,2.7,9.6c1.155,2.16,2.467,4.319,4.239,6.438c1.772,2.121,4.01,4.202,6.785,6.09
		c2.775,1.891,6.09,3.588,17.037,4.434c10.949,0.85,29.528,0.85,48.109,0.85c0.076,4.703,0.154,9.404,0.23,14.105
		c-9.588,0.076-19.177,0.151-28.765,0.225c-0.049-2.31-0.098-4.618-0.122-6.201c-0.025-1.576-0.025-2.424-0.486-3.118
		c-0.463-0.696-1.389-1.235-2.969-1.619c-1.581-0.386-3.816-0.616-10.756-0.616c-6.938,0-18.579,0.23-25.017,0.616
		c-6.438,0.384-7.672,0.923-8.827,1.657c-1.157,0.734-2.237,1.657-2.776,3.854c-0.539,2.198-0.539,5.669-0.347,8.79
		c0.193,3.123,0.578,5.896,2.005,9.213c1.427,3.316,3.894,7.172,6.013,10.023c2.121,2.854,3.895,4.701,7.017,6.705
		c3.122,2.008,7.594,4.165,13.454,5.399c5.858,1.232,13.105,1.54,26.135,1.616c13.028,0.078,31.841-0.076,42.095-0.576
		c10.254-0.501,11.95-1.348,14.38-2.775c2.428-1.426,5.588-3.432,8.402-5.745c2.814-2.31,5.281-4.933,7.016-8.325
		c1.734-3.394,2.738-7.557,3.277-13.34c0.539-5.779,0.616-13.183,0.5-18.504c-0.115-5.316-0.422-8.556-1.272-11.908
		c-0.848-3.354-2.235-6.822-4.316-9.907s-4.856-5.783-8.019-7.71c-3.16-1.926-6.707-3.084-10.021-3.971
		c-3.316-0.885-6.4-1.505-11.103-1.891c-4.702-0.384-11.024-0.539-18.633-0.596c-7.61-0.061-16.505-0.021-25.398,0.017
		c-0.077-5.821-0.154-11.644-0.232-17.462c3.346,0.076,6.688,0.156,11.681,0.146s11.632-0.109,18.273-0.203
		c-0.084,3.529-0.168,7.056-0.129,9.529c0.04,2.467,0.205,3.881,0.742,4.822c0.537,0.945,1.451,1.424,3.41,1.506
		C131.018,425.963,134.023,425.657,140.598,425.672"/>
	<path fill-rule="evenodd" clip-rule="evenodd" fill="#FFFFFF" d="M189.05,376.652c7.247-0.151,20.971-0.151,28.448,0
		c7.479,0.157,8.712,0.464,9.482,1.081c0.771,0.615,1.079,1.541,1.195,7.207c0.115,5.667,0.037,16.076,0.049,32.303
		c0.01,16.232,0.105,38.279,0.203,60.328c11.314,0,22.627,0.004,33.94,0.004c-0.154-32.884-0.309-65.766-0.327-82.631
		c-0.02-16.864,0.097-17.713,3.604-18.155c3.507-0.444,10.408-0.482,18.368-0.425c7.959,0.057,16.98,0.212,21.607,0.714
		c4.625,0.501,4.854,1.351,4.934,15.765c0.076,14.418-0.001,42.406-0.079,60.832c-0.076,18.427-0.153,27.293-0.653,32.995
		c-0.502,5.705-1.427,8.251-3.431,10.835c-2.005,2.582-5.089,5.203-8.403,7.553c-3.316,2.353-6.863,4.436-11.025,5.744
		c-4.164,1.311-8.943,1.85-21.664,2.197c-12.723,0.348-33.384,0.502-45.604,0.117c-12.22-0.387-15.998-1.313-19.545-2.853
		c-3.547-1.544-6.861-3.702-10.061-6.516c-3.199-2.815-6.283-6.284-8.172-9.829c-1.891-3.547-2.583-7.168-2.699-25.52
		c-0.115-18.35,0.348-51.426,0.617-69.041c0.27-17.617,0.348-19.776,0.771-21.01C181.031,377.116,181.803,376.809,189.05,376.652"/>
	<path fill-rule="evenodd" clip-rule="evenodd" fill="#FFFFFF" d="M366.201,410.379c0.154,22.049,0.309,44.099,0.463,66.15
		c11.182-0.023,22.364-0.039,33.545-0.061c-0.405-22.029-0.813-44.061-1.218-66.09C388.061,410.379,377.132,410.379,366.201,410.379
		 M318.422,402.206c-0.309,21.741-0.309,63.372-0.152,84.883c0.152,21.512,0.461,22.899,1.387,23.669
		c0.924,0.772,2.467,0.927,18.735,0.927c16.267,0,47.259-0.154,64.452-0.541c17.193-0.383,20.585-1.002,23.746-2.235
		c3.161-1.232,6.09-3.085,9.096-5.476c3.009-2.387,6.091-5.32,8.251-7.555c2.158-2.236,3.392-3.777,3.931-8.711
		c0.541-4.934,0.386-13.262,0.232-28.373s-0.309-37.006-0.849-49.262c-0.539-12.259-1.465-14.881-3.161-17.734
		c-1.695-2.854-4.162-5.936-7.247-8.326c-3.083-2.387-6.784-4.086-9.56-5.396c-2.775-1.313-4.626-2.236-21.587-2.622
		c-16.962-0.385-49.032-0.231-65.841,0.076c-16.807,0.31-18.35,0.771-19.429,1.926C319.348,378.614,318.73,380.464,318.422,402.206z
		"/>
	<path fill-rule="evenodd" clip-rule="evenodd" fill="#FFFFFF" d="M550.446,426.135c6.574,0.021,16.71,0.367,22.706,0.154
		c5.995-0.211,7.844-0.982,8.867-2.467c1.019-1.484,1.211-3.68,1.271-7.285c0.057-3.605-0.02-8.615-0.137-12.354
		c-0.116-3.742-0.27-6.207-2.619-9.793c-2.353-3.583-6.901-8.287-10.408-11.333c-3.51-3.044-5.977-4.432-8.057-5.59
		c-2.083-1.156-3.78-2.079-16.808-2.544c-13.031-0.463-37.393-0.463-50.769,0c-13.377,0.465-15.768,1.388-18.504,2.813
		c-2.737,1.428-5.82,3.354-8.479,5.165c-2.661,1.814-4.897,3.51-6.631,5.591c-1.735,2.081-2.97,4.548-3.972,6.861
		c-1.002,2.314-1.772,4.472-2.234,7.401c-0.464,2.93-0.617,6.631-0.656,12.683c-0.039,6.053,0.039,14.456,0.579,19.735
		c0.539,5.281,1.541,7.441,2.698,9.602c1.155,2.157,2.465,4.314,4.239,6.436c1.773,2.121,4.009,4.203,6.785,6.092
		c2.775,1.889,6.091,3.586,17.038,4.432c10.947,0.849,29.527,0.849,48.11,0.849c0.076,4.704,0.153,9.405,0.229,14.11
		c-9.589,0.074-19.178,0.146-28.766,0.221c-0.049-2.309-0.097-4.619-0.121-6.197c-0.024-1.582-0.024-2.43-0.487-3.123
		c-0.463-0.691-1.388-1.234-2.968-1.618c-1.582-0.386-3.816-0.618-10.755-0.618c-6.94,0-18.581,0.232-25.018,0.618
		c-6.438,0.384-7.673,0.927-8.828,1.657c-1.156,0.731-2.237,1.656-2.775,3.854c-0.54,2.198-0.54,5.669-0.347,8.79
		c0.191,3.123,0.578,5.899,2.004,9.213c1.427,3.316,3.895,7.171,6.014,10.021c2.121,2.854,3.893,4.702,7.016,6.709
		c3.122,2.005,7.594,4.162,13.453,5.397c5.859,1.231,13.107,1.54,26.137,1.618c13.03,0.076,31.841-0.078,42.096-0.58
		c10.253-0.5,11.95-1.348,14.379-2.773c2.426-1.426,5.587-3.432,8.402-5.745c2.815-2.311,5.279-4.933,7.016-8.325
		c1.735-3.393,2.736-7.557,3.275-13.34c0.54-5.779,0.619-13.184,0.502-18.502s-0.422-8.557-1.272-11.91
		c-0.846-3.354-2.234-6.822-4.317-9.908c-2.08-3.082-4.857-5.783-8.019-7.709c-3.161-1.927-6.706-3.085-10.022-3.97
		c-3.313-0.886-6.397-1.504-11.101-1.892c-4.704-0.385-11.024-0.539-18.632-0.596c-7.612-0.059-16.506-0.021-25.4,0.017
		c-0.076-5.821-0.154-11.644-0.231-17.46c3.343,0.076,6.687,0.154,11.683,0.145c4.99-0.01,11.63-0.107,18.271-0.205
		c-0.083,3.53-0.169,7.06-0.129,9.531c0.042,2.469,0.205,3.881,0.742,4.826c0.537,0.94,1.452,1.42,3.412,1.502
		C540.868,426.426,543.874,426.117,550.446,426.135"/>
	<path fill-rule="evenodd" clip-rule="evenodd" fill="#FFFFFF" d="M667.776,428.592c11.41,0,22.822,0,34.232,0
		c0.155-2.005,0.308-4.01,0.385-5.938c0.079-1.929,0.079-3.776,0.85-6.475s2.312-6.246,4.163-8.329
		c1.85-2.079,4.008-2.694,6.397-3.006c2.391-0.309,5.014-0.309,7.249,0.156c2.234,0.463,4.086,1.388,5.704,2.773
		c1.62,1.389,3.006,3.237,3.778,5.32c0.771,2.084,0.924,4.395,0.616,6.553c-0.309,2.16-1.078,4.164-2.852,6.707
		c-1.774,2.546-4.549,5.629-8.637,8.945c-4.085,3.313-9.482,6.86-15.573,11.18c-6.088,4.315-12.876,9.404-17.81,13.953
		c-4.934,4.551-8.016,8.559-10.948,12.721c-2.928,4.162-5.704,8.482-7.478,12.105c-1.774,3.621-2.545,6.551-2.777,9.713
		c-0.227,3.16,0.08,6.553,0.388,9.945c4.627,0,9.252,0,26.752-0.154c17.502-0.153,47.878-0.461,78.253-0.771
		c0.155-1.234,0.308-2.467,0.387-7.4c0.077-4.934,0.077-13.57,0.077-18.348c0-4.782,0-5.707-0.385-6.398
		c-0.386-0.694-1.156-1.158-2.776-1.391c-1.62-0.23-4.085-0.23-12.797,0c-8.713,0.232-23.669,0.696-38.626,1.158
		c2.313-1.697,4.624-3.393,8.248-5.551c3.624-2.16,8.559-4.783,13.723-7.789c5.167-3.008,10.564-6.398,14.417-9.175
		c3.855-2.772,6.17-4.933,8.714-8.016c2.544-3.085,5.319-7.093,7.17-10.331c1.849-3.238,2.774-5.705,3.394-8.867
		c0.615-3.16,0.925-7.016,0.151-11.258c-0.771-4.237-2.619-8.866-4.933-12.643c-2.314-3.776-5.09-6.707-8.865-9.867
		c-3.78-3.161-8.558-6.554-13.032-8.944c-4.47-2.389-8.634-3.778-12.875-4.472c-4.239-0.691-8.555-0.691-13.337-0.309
		c-4.78,0.387-10.021,1.156-14.492,2.234c-4.474,1.082-8.174,2.469-12.029,4.705s-7.863,5.321-11.179,8.789
		c-3.314,3.47-5.937,7.324-8.019,11.563c-2.081,4.244-3.622,8.867-4.472,13.418C668.087,419.647,667.931,424.12,667.776,428.592"/>
	<path fill-rule="evenodd" clip-rule="evenodd" fill="#FFFFFF" d="M865.661,375.036c6.711-0.153,19.42-0.153,26.346,0
		c6.926,0.154,8.066,0.462,8.779,1.081c0.715,0.616,0.999,1.54,1.109,7.207c0.104,5.665,0.033,16.075,0.042,32.302
		c0.01,16.23,0.099,38.279,0.189,60.328c10.478,0,20.954,0,31.43,0.002c-0.144-32.881-0.284-65.765-0.304-82.63
		c-0.017-16.862,0.091-17.714,3.338-18.153c3.25-0.445,9.639-0.483,17.01-0.425c7.369,0.056,15.725,0.211,20.007,0.712
		c4.285,0.5,4.497,1.352,4.571,15.767c0.071,14.418-0.003,42.405-0.074,60.831c-0.069,18.426-0.141,27.289-0.605,32.996
		c-0.463,5.704-1.319,8.25-3.176,10.834c-1.856,2.58-4.715,5.202-7.782,7.553c-3.069,2.354-6.354,4.434-10.211,5.746
		c-3.855,1.309-8.28,1.85-20.06,2.195c-11.78,0.346-30.913,0.502-42.229,0.114c-11.317-0.384-14.815-1.31-18.098-2.849
		c-3.286-1.545-6.354-3.703-9.317-6.518c-2.962-2.816-5.817-6.284-7.569-9.83c-1.748-3.547-2.391-7.168-2.498-25.52
		c-0.106-18.349,0.323-51.424,0.571-69.04c0.25-17.615,0.322-19.774,0.716-21.007C858.237,375.498,858.949,375.19,865.661,375.036"
		/>
	<rect x="593.368" y="441.143" fill-rule="evenodd" clip-rule="evenodd" fill="#FFFFFF" width="55.456" height="31.688"/>
	<rect x="790.083" y="441.2" fill-rule="evenodd" clip-rule="evenodd" fill="#FFFFFF" width="55.454" height="31.691"/>
	<g>
		<g>
			<path fill="#00ADEE" d="M21.465,606.397V558.93H2.941v-9.666h49.611v9.666H34.07v47.467H21.465z"/>
			<path fill="#00ADEE" d="M60.729,606.397v-57.133h12.605v22.486h24.699v-22.486h12.604v57.133H98.033v-24.98H73.334v24.98H60.729z
				"/>
			<path fill="#00ADEE" d="M123.669,606.397v-57.133h46.29v9.666h-33.686v12.666h31.343v9.625h-31.343v15.551h34.877v9.625H123.669z
				"/>
			<path fill="#00ADEE" d="M205.9,606.397v-57.133h18.865l11.326,38.973l11.201-38.973h18.906v57.133h-11.71v-44.973l-12.392,44.973
				h-12.137l-12.35-44.973v44.973H205.9z"/>
			<path fill="#00ADEE" d="M276.165,578.182c0-5.82,0.95-10.705,2.853-14.654c1.42-2.908,3.357-5.52,5.813-7.832
				c2.455-2.313,5.146-4.027,8.069-5.145c3.89-1.508,8.375-2.262,13.457-2.262c9.199,0,16.559,2.611,22.08,7.834
				s8.283,12.484,8.283,21.785c0,9.225-2.74,16.439-8.219,21.648c-5.479,5.211-12.805,7.814-21.975,7.814
				c-9.283,0-16.664-2.592-22.144-7.775S276.165,587.276,276.165,578.182z M289.153,577.792c0,6.471,1.632,11.375,4.897,14.713
				c3.264,3.338,7.41,5.008,12.435,5.008s9.148-1.656,12.371-4.969c3.222-3.313,4.833-8.281,4.833-14.908
				c0-6.547-1.568-11.432-4.705-14.652c-3.138-3.221-7.304-4.832-12.499-4.832s-9.384,1.631-12.563,4.891
				C290.743,566.301,289.153,571.219,289.153,577.792z"/>
			<path fill="#00ADEE" d="M346.6,549.264h24.955c4.939,0,8.623,0.189,11.051,0.564c2.428,0.377,4.6,1.164,6.516,2.359
				s3.514,2.785,4.791,4.773s1.916,4.215,1.916,6.684c0,2.676-0.788,5.131-2.363,7.365c-1.576,2.236-3.713,3.912-6.409,5.027
				c3.804,1.014,6.729,2.742,8.772,5.184c2.044,2.443,3.066,5.314,3.066,8.613c0,2.598-0.66,5.125-1.98,7.58
				s-3.123,4.418-5.408,5.885c-2.285,1.469-5.104,2.371-8.453,2.709c-2.102,0.207-7.169,0.338-15.203,0.389H346.6V549.264z
				 M359.205,558.774v13.211h8.262c4.911,0,7.963-0.064,9.156-0.195c2.156-0.232,3.854-0.916,5.088-2.045
				c1.235-1.131,1.853-2.617,1.853-4.463c0-1.766-0.532-3.201-1.597-4.307c-1.064-1.104-2.647-1.773-4.748-2.006
				c-1.25-0.131-4.841-0.195-10.773-0.195H359.205z M359.205,581.495v15.277h11.668c4.543,0,7.424-0.117,8.645-0.352
				c1.875-0.313,3.4-1.072,4.578-2.279c1.178-1.209,1.768-2.826,1.768-4.852c0-1.715-0.455-3.17-1.363-4.365
				s-2.221-2.066-3.938-2.611s-5.444-0.818-11.179-0.818H359.205z"/>
			<path fill="#00ADEE" d="M409.157,606.397v-57.133h12.604v57.133H409.157z"/>
			<path fill="#00ADEE" d="M434.111,606.397v-56.664h12.605v47.039h31.342v9.625H434.111z"/>
			<path fill="#00ADEE" d="M487.045,606.397v-57.133h46.289v9.666h-33.685v12.666h31.343v9.625h-31.343v15.551h34.877v9.625H487.045
				z"/>
			<path fill="#00ADEE" d="M578.304,606.397l-14.905-57.133h12.903l9.411,39.246l11.413-39.246h14.989l10.944,39.908l9.582-39.908
				h12.69l-15.16,57.133H616.8l-12.435-42.713l-12.393,42.713H578.304z"/>
		</g>
		<g>
			<path fill="#00ADEE" d="M703.253,606.397H689.54l-5.45-12.977h-24.955l-5.152,12.977H640.61l24.315-57.133h13.329
				L703.253,606.397z M680.044,583.793l-8.603-21.201l-8.432,21.201H680.044z"/>
			<path fill="#00ADEE" d="M706.744,587.807l12.265-1.09c0.737,3.768,2.235,6.533,4.492,8.301s5.302,2.65,9.135,2.65
				c4.06,0,7.118-0.787,9.177-2.359c2.059-1.57,3.088-3.41,3.088-5.514c0-1.352-0.434-2.5-1.299-3.449
				c-0.867-0.947-2.379-1.773-4.536-2.475c-1.476-0.467-4.84-1.299-10.092-2.494c-6.758-1.533-11.498-3.416-14.224-5.65
				c-3.833-3.145-5.749-6.977-5.749-11.498c0-2.908,0.901-5.631,2.704-8.164s4.4-4.463,7.793-5.787s7.487-1.988,12.286-1.988
				c7.835,0,13.733,1.572,17.693,4.717c3.961,3.143,6.04,7.34,6.239,12.588l-12.605,0.506c-0.539-2.936-1.696-5.047-3.471-6.332
				c-1.774-1.287-4.436-1.93-7.984-1.93c-3.662,0-6.53,0.689-8.603,2.066c-1.334,0.883-2.001,2.064-2.001,3.545
				c0,1.352,0.624,2.508,1.873,3.469c1.59,1.223,5.451,2.494,11.584,3.82c6.132,1.324,10.667,2.695,13.605,4.111
				s5.238,3.352,6.898,5.807c1.661,2.455,2.491,5.488,2.491,9.1c0,3.273-0.994,6.34-2.98,9.197
				c-1.987,2.859-4.799,4.982-8.432,6.373c-3.635,1.389-8.163,2.084-13.585,2.084c-7.893,0-13.954-1.67-18.184-5.008
				C710.094,599.065,707.567,594.2,706.744,587.807z"/>
			<path fill="#00ADEE" d="M768.151,606.397v-57.133h12.605v22.486h24.699v-22.486h12.604v57.133h-12.604v-24.98h-24.699v24.98
				H768.151z"/>
		</g>
		<g>
			<path fill="#00ADEE" d="M908.38,606.397h-13.713l-5.45-12.977h-24.955l-5.152,12.977h-13.372l24.315-57.133h13.329
				L908.38,606.397z M885.171,583.793l-8.603-21.201l-8.432,21.201H885.171z"/>
			<path fill="#00ADEE" d="M915.064,606.397v-57.133h20.229c7.665,0,12.661,0.287,14.989,0.857c3.577,0.857,6.572,2.723,8.985,5.592
				c2.413,2.873,3.62,6.582,3.62,11.127c0,3.508-0.696,6.457-2.087,8.848c-1.392,2.391-3.158,4.268-5.302,5.631
				s-4.322,2.268-6.537,2.709c-3.009,0.545-7.367,0.818-13.073,0.818h-8.219v21.551H915.064z M927.67,558.93v16.211h6.898
				c4.968,0,8.29-0.297,9.965-0.896c1.675-0.596,2.988-1.531,3.939-2.805s1.427-2.754,1.427-4.443c0-2.078-0.668-3.793-2.002-5.145
				c-1.335-1.35-3.023-2.195-5.067-2.533c-1.505-0.26-4.528-0.389-9.07-0.389H927.67z"/>
			<path fill="#00ADEE" d="M973.235,606.397v-57.133h20.229c7.665,0,12.661,0.287,14.989,0.857c3.577,0.857,6.572,2.723,8.985,5.592
				c2.413,2.873,3.62,6.582,3.62,11.127c0,3.508-0.696,6.457-2.087,8.848c-1.392,2.391-3.158,4.268-5.302,5.631
				s-4.322,2.268-6.537,2.709c-3.009,0.545-7.367,0.818-13.073,0.818h-8.219v21.551H973.235z M985.841,558.93v16.211h6.898
				c4.968,0,8.29-0.297,9.965-0.896c1.675-0.596,2.988-1.531,3.939-2.805s1.427-2.754,1.427-4.443c0-2.078-0.668-3.793-2.002-5.145
				c-1.335-1.35-3.023-2.195-5.067-2.533c-1.505-0.26-4.528-0.389-9.07-0.389H985.841z"/>
		</g>
	</g>
</g>
</svg>
